{"title":"Coyote Waits(2003)MP-4[DaScubaDude]","uid":12349829,"size":1085657996,"categoryP":"video","categoryS":"movies","magnet":"?xt=urn:btih:bd7d43ac88d80b3d698f6cb0a9c128515b33d204&amp;dn=Coyote+Waits%282003%29MP-4%5BDaScubaDude%5D&amp;tr=udp%3A%2F%2Ftracker.openbittorrent.com%3A80&amp;tr=udp%3A%2F%2Fopen.demonii.com%3A1337&amp;tr=udp%3A%2F%2Ftracker.coppersurfer.tk%3A6969&amp;tr=udp%3A%2F%2Fexodus.desync.com%3A6969","seeders":1,"leechers":0,"uploader":"dascuba","files":1,"time":1441405036,"description":"Coyote Waits (2003)\nTV Movie  |  107 min  |  Mystery  |  16 November 2003 (USA)\n7.2 Your rating:   -/10   Ratings: 7.2/10 from 367 users   \nReviews: 11 user | 3 critic\nTwo tribal cops uncover a plot involving a lost fortune, an historical artifact and a mythical Coyote on a Navajo reservation.\n\nDirector: Jan Egleson\nWriters: Lloyd 'Lucky' Gold (teleplay), Tony Hillerman (novel)\nStars: Adam Beach, Candice Costello, Jimmy Herman\n\nGeneral\nComplete name                            : C:Coyote WaitsCoyote_Waits_Title1.mp4\nFormat                                   : MPEG-4\nFormat profile                           : Base Media\nCodec ID                                 : isom\nFile size                                : 1.01 GiB\nDuration                                 : 1h 46mn\nOverall bit rate mode                    : Variable\nOverall bit rate                         : 1 353 Kbps\nMovie name                               : Coyote_Waits\nGenre                                    : Drama\nWriting application                      : Lavf54.6.100\n\nVideo\nID                                       : 1\nFormat                                   : AVC\nFormat/Info                              : Advanced Video Codec\nFormat profile                           : Baseline@L3\nFormat settings, CABAC                   : No\nFormat settings, ReFrames                : 6 frames\nCodec ID                                 : avc1\nCodec ID/Info                            : Advanced Video Coding\nDuration                                 : 1h 46mn\nBit rate                                 : 1 218 Kbps\nWidth                                    : 720 pixels\nHeight                                   : 404 pixels\nDisplay aspect ratio                     : 16:9\nFrame rate mode                          : Constant\nFrame rate                               : 29.970 fps\nColor space                              : YUV\nChroma subsampling                       : 4:2:0\nBit depth                                : 8 bits\nScan type                                : Progressive\nBits/(Pixel*Frame)                       : 0.140\nStream size                              : 932 MiB (90%)\n\nAudio\nID                                       : 2\nFormat                                   : AAC\nFormat/Info                              : Advanced Audio Codec\nFormat profile                           : LC\nCodec ID                                 : 40\nDuration                                 : 1h 46mn\nBit rate mode                            : Variable\nBit rate                                 : 128 Kbps\nMaximum bit rate                         : 147 Kbps\nChannel(s)                               : 2 channels\nChannel positions                        : Front: L R\nSampling rate                            : 44.1 KHz\nCompression mode                         : Lossy\nStream size                              : 97.9 MiB (9%)","torrent":{"xt":"urn:btih:bd7d43ac88d80b3d698f6cb0a9c128515b33d204","amp;dn":"Coyote+Waits%282003%29MP-4%5BDaScubaDude%5D","amp;tr":["udp%3A%2F%2Ftracker.openbittorrent.com%3A80","udp%3A%2F%2Fopen.demonii.com%3A1337","udp%3A%2F%2Ftracker.coppersurfer.tk%3A6969","udp%3A%2F%2Fexodus.desync.com%3A6969"],"infoHash":"bd7d43ac88d80b3d698f6cb0a9c128515b33d204","infoHashBuffer":{"type":"Buffer","data":[189,125,67,172,136,216,11,61,105,143,108,176,169,193,40,81,91,51,210,4]},"announce":[],"urlList":[]}}